<?xml version="1.0" encoding="UTF-8"?>
<!DOCTYPE svg PUBLIC "-//W3C//DTD SVG 1.1//EN" "http://www.w3.org/Graphics/SVG/1.1/DTD/svg11.dtd">
<svg xmlns="http://www.w3.org/2000/svg" version="1.1" width="747px" height="862px" style="shape-rendering:geometricPrecision; text-rendering:geometricPrecision; image-rendering:optimizeQuality; fill-rule:evenodd; clip-rule:evenodd" xmlns:xlink="http://www.w3.org/1999/xlink">
<g><path style="opacity:0.994" fill="#000000" d="M 35.5,89.5 C 187.834,89.3333 340.167,89.5 492.5,90C 525.039,92.018 551.539,105.518 572,130.5C 589.126,156.931 593.126,185.265 584,215.5C 577.126,234.037 564.96,247.871 547.5,257C 600.812,281.805 619.312,322.638 603,379.5C 590.882,408.95 569.716,428.783 539.5,439C 529.039,442.282 518.373,444.615 507.5,446C 350.167,446.5 192.834,446.667 35.5,446.5C 35.5,327.5 35.5,208.5 35.5,89.5 Z M 119.5,159.5 C 237.834,159.333 356.167,159.5 474.5,160C 499.203,166.556 508.703,182.389 503,207.5C 497.486,220.673 487.653,228.173 473.5,230C 355.5,230.5 237.5,230.667 119.5,230.5C 119.5,206.833 119.5,183.167 119.5,159.5 Z M 119.5,293.5 C 240.5,293.333 361.5,293.5 482.5,294C 508.023,295.69 521.69,309.19 523.5,334.5C 522.095,357.411 510.095,371.245 487.5,376C 364.834,376.5 242.167,376.667 119.5,376.5C 119.5,348.833 119.5,321.167 119.5,293.5 Z"/></g>
<g><path style="opacity:0.965" fill="#000000" d="M 53.5,455.5 C 79.5633,454.056 90.0633,466.056 85,491.5C 79.2519,500.961 70.7519,505.628 59.5,505.5C 39.9101,504.305 31.0768,493.972 33,474.5C 36.1878,464.143 43.0211,457.809 53.5,455.5 Z"/></g>
<g><path style="opacity:0.979" fill="#000000" d="M 225.5,467.5 C 240.833,467.5 256.167,467.5 271.5,467.5C 271.5,536.5 271.5,605.5 271.5,674.5C 256.833,674.5 242.167,674.5 227.5,674.5C 227.666,668.824 227.499,663.157 227,657.5C 212.022,676.469 192.522,683.636 168.5,679C 135.514,670.344 116.014,649.177 110,615.5C 104.601,582.699 113.767,554.866 137.5,532C 161.325,515.15 186.325,513.15 212.5,526C 217.368,529.836 221.868,534.003 226,538.5C 225.551,514.868 225.385,491.202 225.5,467.5 Z M 186.5,559.5 C 211.142,560.809 224.142,573.809 225.5,598.5C 224.564,621.768 212.564,634.768 189.5,637.5C 166.287,634.951 154.621,621.951 154.5,598.5C 155.014,577 165.68,564 186.5,559.5 Z"/></g>
<g><path style="opacity:0.979" fill="#000000" d="M 412.5,467.5 C 427.833,467.5 443.167,467.5 458.5,467.5C 458.5,536.5 458.5,605.5 458.5,674.5C 443.833,674.5 429.167,674.5 414.5,674.5C 414.666,668.824 414.499,663.157 414,657.5C 399.022,676.469 379.522,683.636 355.5,679C 322.514,670.344 303.014,649.177 297,615.5C 291.601,582.699 300.767,554.866 324.5,532C 348.325,515.15 373.325,513.15 399.5,526C 404.368,529.836 408.868,534.003 413,538.5C 412.551,514.868 412.385,491.202 412.5,467.5 Z M 373.5,559.5 C 398.142,560.809 411.142,573.809 412.5,598.5C 411.564,621.768 399.564,634.768 376.5,637.5C 353.287,634.951 341.621,621.951 341.5,598.5C 342.014,577 352.68,564 373.5,559.5 Z"/></g>
<g><path style="opacity:0.982" fill="#000000" d="M 544.5,517.5 C 561.43,515.652 577.097,519.152 591.5,528C 595.667,530.833 599.167,534.333 602,538.5C 602.499,533.177 602.666,527.844 602.5,522.5C 617.167,522.5 631.833,522.5 646.5,522.5C 646.5,573.167 646.5,623.833 646.5,674.5C 631.833,674.5 617.167,674.5 602.5,674.5C 602.666,669.156 602.499,663.823 602,658.5C 593.414,670.05 581.914,676.884 567.5,679C 529.09,683.218 502.923,667.385 489,631.5C 479.282,601.58 482.615,573.246 499,546.5C 510.482,530.815 525.649,521.148 544.5,517.5 Z M 562.5,559.5 C 586.625,561.292 599.292,574.292 600.5,598.5C 599.59,621.744 587.59,634.744 564.5,637.5C 541.274,634.938 529.607,621.938 529.5,598.5C 530.151,576.53 541.151,563.53 562.5,559.5 Z"/></g>
<g><path style="opacity:0.989" fill="#000000" d="M 36.5,522.5 C 51.8333,522.5 67.1667,522.5 82.5,522.5C 82.5,573.167 82.5,623.833 82.5,674.5C 67.1667,674.5 51.8333,674.5 36.5,674.5C 36.5,623.833 36.5,573.167 36.5,522.5 Z"/></g>
<g><path style="opacity:0.961" fill="#000000" d="M 703.5,631.5 C 724.261,632.419 733.094,643.086 730,663.5C 722.835,677.231 711.668,682.065 696.5,678C 685.904,674.327 680.57,666.827 680.5,655.5C 681.737,641.264 689.404,633.264 703.5,631.5 Z"/></g>
</svg>
